<?xml version="1.0" encoding="utf-8"?>
<svg version="1.0" width="2000.000000pt" height="2316.000000pt" viewBox="0 0 500 500" preserveAspectRatio="xMidYMid meet" xmlns="http://www.w3.org/2000/svg" xmlns:bx="https://boxy-svg.com">
  <defs>
    <radialGradient id="gradient-2" gradientUnits="userSpaceOnUse" cx="331.988" cy="488.19" r="180.891" gradientTransform="matrix(0.020649, -1.887127, 0.99994, 0.010941, -207.754413, 1021.564393)">
      <stop offset="0" style="stop-color: rgb(247, 247, 247);"/>
      <stop offset="1" style="stop-color: rgb(213, 213, 213);"/>
    </radialGradient>
  </defs>
  <ellipse transform="matrix(-0.707107, 0.707107, -0.707107, -0.707107, 677.321741, 306.630835)" cx="286.073" cy="318.695" rx="180.891" ry="180.891" style="fill: url(#gradient-2);"/>
  <ellipse transform="matrix(-0.707107, 0.707107, -0.707106, -0.707107, 513.003971, -87.03834)" cx="285.445" cy="87.829" rx="29.062" ry="29.062" style="fill: rgb(216, 216, 216);"/>
  <g transform="matrix(0.02187, 0, 0, -0.022011, 31.043747, 504.883118)" fill="#000000" stroke="none" bx:origin="0.497 0.5">
    <path d="M9795 22930 c-587 -53 -1125 -302 -1534 -711 -577 -577 -829 -1390 -680 -2194 21 -114 66 -281 99 -372 l19 -52 -42 -11 c-23 -6 -133 -35 -244 -65 -2283 -615 -4290 -2064 -5610 -4050 -860 -1294 -1398 -2769 -1572 -4309 -47 -409 -55 -579 -56 -1111 0 -520 5 -642 46 -1035 174 -1707 807 -3353 1822 -4748 461 -632 1004 -1216 1607 -1728 1242 -1055 2787 -1804 4379 -2124 682 -137 1259 -194 1971 -194 500 0 814 20 1275 79 1487 192 2894 717 4156 1551 783 517 1507 1165 2114 1890 1112 1327 1858 2936 2144 4624 110 644 148 1149 138 1825 -6 401 -20 635 -58 970 -324 2871 -1905 5450 -4329 7066 -939 625 -1943 1066 -3097 1359 l-42 10 25 73 c92 269 134 523 134 816 0 1220 -902 2252 -2122 2426 -126 18 -421 27 -543 15z m386 -1245 c313 -47 604 -220 793 -471 164 -219 246 -464 246 -734 0 -196 -43 -377 -129 -547 -65 -128 -38 -118 -257 -99 -551 47 -1117 47 -1668 0 -220 -19 -192 -30 -261 106 -141 279 -165 623 -65 922 189 562 757 911 1341 823z m-215 -3682 c-18 -63 -1026 -4426 -1023 -4429 2 -2 73 14 158 35 334 85 615 116 984 108 316 -7 529 -35 819 -108 65 -16 120 -29 121 -27 1 2 -229 999 -512 2217 -282 1217 -511 2216 -508 2219 10 10 566 -17 777 -38 1857 -185 3553 -991 4873 -2314 1312 -1316 2115 -3026 2289 -4876 29 -300 45 -710 29 -710 -8 0 -494 112 -3028 700 -1024 237 -1411 323 -1413 314 -2 -7 6 -43 17 -81 90 -309 140 -723 128 -1073 -10 -285 -38 -492 -103 -763 -20 -82 -34 -150 -32 -152 2 -2 566 127 1253 286 688 159 1651 382 2140 496 490 113 925 214 968 223 l77 18 0 -102 c0 -122 -16 -438 -30 -596 -133 -1474 -657 -2854 -1533 -4040 -887 -1199 -2116 -2142 -3498 -2684 -715 -280 -1441 -451 -2213 -521 -160 -14 -665 -39 -671 -33 -2 2 228 1002 511 2222 283 1220 513 2221 510 2223 -2 2 -75 -14 -162 -35 -322 -81 -540 -107 -894 -107 -347 0 -556 24 -873 101 -82 20 -149 35 -151 33 -2 -2 228 -1000 511 -2217 283 -1218 512 -2216 509 -2219 -8 -9 -533 15 -706 32 -985 95 -1864 335 -2723 744 -1380 657 -2568 1726 -3371 3033 -699 1140 -1095 2421 -1166 3773 -14 267 -13 355 3 355 11 0 1539 -352 2537 -585 129 -30 586 -136 1015 -235 429 -100 801 -186 827 -192 27 -6 51 -9 54 -5 3 3 -10 68 -30 144 -84 328 -110 541 -110 903 -1 360 24 569 106 898 16 68 28 125 25 128 -2 3 -1002 -226 -2221 -509 l-2216 -513 0 91 c0 155 19 490 41 705 218 2202 1344 4208 3119 5557 1346 1023 2983 1589 4688 1621 94 2 103 0 98 -15z"/>
    <path d="M14404 14692 c-108 -38 -251 -115 -409 -221 -222 -148 -4235 -2963 -4235 -2971 0 -4 21 -3 48 3 82 17 365 14 466 -6 195 -39 357 -106 520 -214 127 -84 327 -281 408 -403 113 -171 191 -364 222 -549 18 -109 21 -320 5 -422 -6 -39 -9 -73 -6 -75 3 -3 29 30 60 73 30 43 693 987 1473 2098 780 1111 1448 2068 1485 2126 77 121 159 279 186 359 10 30 18 83 18 117 0 83 -20 105 -102 110 -45 3 -76 -3 -139 -25z"/>
    <path d="M6081 13941 c7 -21 1024 -1610 1030 -1610 4 -1 40 38 80 87 89 107 350 367 442 441 53 43 65 57 55 67 -10 9 -1541 986 -1597 1019 -9 5 -12 4 -10 -4z"/>
    <path d="M8538 10273 c-133 -183 -2908 -4143 -2970 -4238 -131 -200 -218 -397 -218 -494 0 -87 64 -124 173 -102 120 25 283 107 497 251 255 171 4215 2952 4219 2962 2 7 -3 9 -14 4 -46 -17 -270 -27 -373 -16 -344 36 -619 167 -868 415 -225 223 -358 475 -409 769 -18 103 -20 317 -4 417 6 39 9 73 6 75 -2 3 -20 -17 -39 -43z"/>
    <path d="M12760 7619 c-112 -127 -268 -280 -409 -399 l-54 -46 798 -509 c934 -597 830 -532 822 -511 -10 26 -1021 1606 -1028 1606 -4 0 -62 -63 -129 -141z"/>
  </g>
</svg>